<svg xmlns="http://www.w3.org/2000/svg" xmlns:xlink="http://www.w3.org/1999/xlink" xmlns:sketch="http://www.bohemiancoding.com/sketch/ns" width="58px" height="50px" viewBox="0 0 58 50" version="1.1" style="fill: #F9DD17;">
    <defs></defs>
    <g id="Page-1" stroke="none" stroke-width="1" fill="none" fill-rule="evenodd" type="MSPage">
        <g id="home" type="MSArtboardGroup" transform="translate(-160.000000, -32.000000)" fill="#F9DD16">
            <g id="Logo-Copy" type="MSLayerGroup" transform="translate(160.000000, 32.000000)">
                <path d="M0,50 L57.1212121,50 L57.1212121,0 L0,0 L0,50 Z M27.3406861,15.4426964 C27.3093507,17.6371391 27.3093507,19.7151685 25.4540783,21.6463216 C23.1968482,24.0170159 18.99142,24.8068847 15.6828328,24.8068847 C14.1365924,24.8068847 12.5914324,24.6600083 11.0754469,24.3096808 C10.0240898,24.0757665 8.66370079,23.6656005 7.30331176,22.8169811 C3.87046349,20.6225385 3.84020861,17.9004287 3.84020861,15.4426964 L3.84020861,3.44452423 L9.28284529,3.44452423 L9.28284529,15.5895729 C9.28284529,17.4326 9.68372244,18.9829623 11.7561817,19.9197076 C13.5185284,20.7106643 15.0950237,20.6519137 16.703935,20.5931632 C18.7753137,20.4169115 20.1054478,19.8903323 20.9709535,18.954675 C21.4960917,18.3693453 21.9607202,17.6958896 21.8980494,15.6178602 L21.8980494,3.44452423 L27.3406861,3.44452423 L27.3406861,15.4426964 L27.3406861,15.4426964 Z M27.5449065,40.5672694 C27.5449065,41.7662162 27.2542436,43.0250016 26.5129991,44.0487847 C24.7409275,46.4782296 21.8083653,46.4782296 19.5857122,46.506517 L3.956906,46.506517 L3.956906,25.8480754 L18.7148039,25.8480754 C21.0671208,25.905738 23.9348511,25.9644885 25.4821721,27.9837674 C26.287168,29.0369258 26.3844158,30.1782101 26.3844158,30.9104163 C26.3844158,31.4663707 26.3195839,32.6370303 25.4821721,33.6608134 C24.5475124,34.7727223 23.3232703,35.1241378 22.6144417,35.2993015 C24.0320989,35.650717 27.5449065,36.4405858 27.5449065,40.5672694 L27.5449065,40.5672694 Z M46.7437885,15.4720717 L53.3609628,24.1040538 L46.9296399,24.1040538 L41.0850456,15.7941119 L34.8698289,15.7941119 L34.8698289,24.1040538 L29.3958568,24.1040538 L29.3958568,3.44452423 L44.4238876,3.44452423 C46.8983045,3.44452423 49.1555346,3.65015123 50.9794716,5.64005483 C52.0934995,6.86837696 52.4025315,8.41982723 52.4025315,9.61986204 C52.4025315,11.1995996 51.8460578,13.0730901 50.2998174,14.184999 C49.1252797,15.0336184 47.6092942,15.3251953 46.7437885,15.4720717 L46.7437885,15.4720717 Z M53.4852239,46.5391562 L48.0739227,46.5391562 L37.2513201,34.8923994 C36.1070374,33.634702 35.6434894,33.1081228 34.4376164,31.6447984 C34.5921324,33.224536 34.5921324,33.5759514 34.6223872,35.155689 L34.6223872,46.5391562 L29.4282728,46.5391562 L29.4282728,25.8796266 L34.8709095,25.8796266 L45.5692509,37.3795069 C46.8680496,38.8134561 47.1154913,39.1072089 48.4758804,40.7163218 C48.2911095,38.7547055 48.2911095,38.2281263 48.2597741,36.4438497 L48.2597741,25.8796266 L53.4852239,25.8796266 L53.4852239,46.5391562 L53.4852239,46.5391562 Z M46.8669691,9.67861262 C46.8669691,9.26844659 46.8053788,8.56561568 46.4347565,8.06841178 C46.0327989,7.57120787 45.5065801,7.07400396 43.3422757,7.07400396 L34.8698289,7.07400396 L34.8698289,12.1363448 L43.5897174,12.1363448 C44.764255,12.1363448 46.8669691,11.9894684 46.8669691,9.67861262 L46.8669691,9.67861262 Z M21.8407813,40.0689775 C21.8407813,37.58187 19.6818795,37.58187 18.8444677,37.58187 L9.5961994,37.58187 L9.5961994,42.8792132 L18.1356391,42.8792132 C19.4236325,42.8792132 21.8407813,42.9075005 21.8407813,40.0689775 L21.8407813,40.0689775 Z M20.9385375,31.6709098 C20.9385375,29.4764671 19.1016342,29.4470918 18.1993904,29.4470918 L9.5961994,29.4470918 L9.5961994,33.9828535 L17.7488088,33.9828535 C18.4252215,33.9828535 19.0692182,33.9534783 19.5857122,33.7772265 C20.9385375,33.2800226 20.9385375,31.9048241 20.9385375,31.6709098 L20.9385375,31.6709098 Z" id="Fill-1" type="MSShapeGroup" style="fill: #F9DD17;"></path>
            </g>
        </g>
    </g>
</svg>